<?xml version="1.0" standalone="no"?>
<!DOCTYPE svg PUBLIC "-//W3C//DTD SVG 1.1//EN" "http://www.w3.org/Graphics/SVG/1.1/DTD/svg11.dtd">
<svg xmlns="http://www.w3.org/2000/svg" xmlns:xlink="http://www.w3.org/1999/xlink" width="375" zoomAndPan="magnify" viewBox="0 0 375 374.999991" height="375" preserveAspectRatio="xMidYMid meet" version="1.0"><defs><g/><clipPath id="21acbc2274"><path d="M 264 108.839844 L 350.757812 108.839844 L 350.757812 195 L 264 195 Z M 264 108.839844 " clip-rule="nonzero"/></clipPath><clipPath id="86b6b8bce8"><path d="M 103 173 L 248 173 L 248 194.621094 L 103 194.621094 Z M 103 173 " clip-rule="nonzero"/></clipPath><clipPath id="74ac2075b3"><path d="M 238 178 L 252.972656 178 L 252.972656 193 L 238 193 Z M 238 178 " clip-rule="nonzero"/></clipPath></defs><path fill="#92dad4" d="M 234.660156 242.894531 C 218.84375 258.703125 213.984375 255.890625 208.777344 250.683594 C 203.570312 245.472656 200.753906 240.617188 216.566406 224.808594 C 232.382812 208.996094 303.046875 148.21875 307.144531 152.316406 C 311.449219 156.621094 250.46875 227.085938 234.660156 242.894531 " fill-opacity="1" fill-rule="nonzero"/><path fill="#92dad4" d="M 331.226562 164.839844 C 316.90625 179.164062 300.675781 178.964844 290.539062 168.828125 C 280.410156 158.695312 280.210938 142.460938 294.527344 128.144531 C 308.851562 113.828125 334.414062 109 342.390625 116.980469 C 350.769531 125.351562 345.542969 150.523438 331.226562 164.839844 " fill-opacity="1" fill-rule="nonzero"/><g clip-path="url(#21acbc2274)"><path stroke-linecap="butt" transform="matrix(0.0622148, 0, 0, -0.0622148, 143.271045, 316.234256)" fill="none" stroke-linejoin="miter" d="M 2981.390898 2492.306772 C 2789.703824 2300.619697 2572.399873 2303.193942 2436.781111 2438.875491 C 2301.099562 2574.494253 2298.525317 2791.923777 2490.212391 2983.610851 C 2681.773893 3175.172353 3024.085694 3239.905197 3130.885469 3133.105422 C 3243.022093 3020.906011 3173.077973 2683.993846 2981.390898 2492.306772 Z M 2981.390898 2492.306772 " stroke="#c2eaec" stroke-width="27.200001" stroke-opacity="1" stroke-miterlimit="10"/></g><g fill="#00bf63" fill-opacity="1"><g transform="translate(54.655285, 195.399653)"><g><path d="M 66.3125 -26.140625 C 67.164062 -25.910156 67.675781 -25.410156 67.84375 -24.640625 C 68.019531 -23.867188 67.835938 -23.179688 67.296875 -22.578125 C 66.753906 -21.972656 66.050781 -21.757812 65.1875 -21.9375 C 59.625 -22.90625 53.921875 -21.984375 48.078125 -19.171875 C 48.078125 -19.117188 48.078125 -19.035156 48.078125 -18.921875 C 48.078125 -18.804688 48.078125 -18.703125 48.078125 -18.609375 C 48.078125 -18.523438 48.078125 -18.425781 48.078125 -18.3125 C 48.015625 -16.539062 48 -14.765625 48.03125 -12.984375 C 48.0625 -11.203125 48.046875 -9.351562 47.984375 -7.4375 C 47.929688 -5.519531 47.832031 -3.65625 47.6875 -1.84375 C 47.539062 -0.0390625 47.265625 1.773438 46.859375 3.609375 C 46.460938 5.441406 45.960938 7.175781 45.359375 8.8125 C 44.765625 10.445312 43.9375 12.023438 42.875 13.546875 C 41.8125 15.066406 40.59375 16.425781 39.21875 17.625 C 37.550781 19.113281 35.710938 20.21875 33.703125 20.9375 C 31.703125 21.65625 29.625 21.84375 27.46875 21.5 C 25.320312 21.15625 23.503906 20.125 22.015625 18.40625 C 20.460938 16.625 19.554688 14.328125 19.296875 11.515625 C 19.046875 8.710938 19.320312 6.222656 20.125 4.046875 C 21.5625 -0.546875 23.835938 -4.890625 26.953125 -8.984375 C 30.078125 -13.085938 33.675781 -16.65625 37.75 -19.6875 C 37.925781 -19.75 38.128906 -19.863281 38.359375 -20.03125 C 38.410156 -23.53125 38.492188 -26.515625 38.609375 -28.984375 C 38.722656 -31.273438 38.8125 -33.195312 38.875 -34.75 C 37.550781 -31.59375 36.0625 -28.925781 34.40625 -26.75 C 30.15625 -21.125 25.535156 -18.425781 20.546875 -18.65625 C 16.304688 -18.882812 12.796875 -20.691406 10.015625 -24.078125 C 7.234375 -27.460938 5.5 -31.390625 4.8125 -35.859375 C 4.238281 -39.816406 4.15625 -44.347656 4.5625 -49.453125 C 5.019531 -55.410156 5.9375 -60.050781 7.3125 -63.375 C 7.769531 -64.414062 8.472656 -64.976562 9.421875 -65.0625 C 10.367188 -65.144531 11.226562 -64.84375 12 -64.15625 C 12.769531 -63.46875 13.210938 -62.691406 13.328125 -61.828125 C 13.390625 -60.859375 13.363281 -59.457031 13.25 -57.625 C 13.132812 -55.789062 13.078125 -54.757812 13.078125 -54.53125 C 13.015625 -52.457031 13.015625 -50.273438 13.078125 -47.984375 C 13.078125 -42.765625 13.421875 -38.8125 14.109375 -36.125 C 14.960938 -32.789062 16.394531 -30.320312 18.40625 -28.71875 C 19.375 -27.914062 20.40625 -27.457031 21.5 -27.34375 C 21.4375 -27.34375 21.476562 -27.34375 21.625 -27.34375 C 21.769531 -27.34375 21.925781 -27.34375 22.09375 -27.34375 C 22.269531 -27.34375 22.390625 -27.34375 22.453125 -27.34375 C 22.960938 -27.34375 23.25 -27.375 23.3125 -27.4375 C 23.707031 -27.488281 24.078125 -27.570312 24.421875 -27.6875 C 24.535156 -27.6875 24.820312 -27.832031 25.28125 -28.125 C 26.03125 -28.519531 26.601562 -28.890625 27 -29.234375 C 28.488281 -30.554688 29.804688 -32.109375 30.953125 -33.890625 C 34.859375 -39.898438 37.984375 -48.46875 40.328125 -59.59375 C 40.390625 -59.65625 40.445312 -59.742188 40.5 -59.859375 C 40.675781 -61.460938 40.9375 -62.921875 41.28125 -64.234375 C 41.394531 -64.867188 41.738281 -65.375 42.3125 -65.75 C 42.882812 -66.125 43.472656 -66.320312 44.078125 -66.34375 C 44.679688 -66.375 45.269531 -66.203125 45.84375 -65.828125 C 46.414062 -65.460938 46.757812 -64.929688 46.875 -64.234375 C 47.101562 -62.804688 47.300781 -61.332031 47.46875 -59.8125 C 47.644531 -58.289062 47.773438 -56.65625 47.859375 -54.90625 C 47.941406 -53.15625 48 -51.691406 48.03125 -50.515625 C 48.0625 -49.347656 48.078125 -47.6875 48.078125 -45.53125 C 48.078125 -43.382812 48.078125 -41.910156 48.078125 -41.109375 C 48.128906 -36.410156 48.128906 -31.109375 48.078125 -25.203125 C 54.328125 -27.378906 60.40625 -27.691406 66.3125 -26.140625 Z M 36.375 4.46875 C 36.664062 3.664062 36.910156 2.789062 37.109375 1.84375 C 37.304688 0.90625 37.445312 0.109375 37.53125 -0.546875 C 37.625 -1.210938 37.710938 -2.144531 37.796875 -3.34375 C 37.878906 -4.550781 37.9375 -5.367188 37.96875 -5.796875 C 38 -6.234375 38.023438 -7.164062 38.046875 -8.59375 C 38.078125 -10.03125 38.09375 -10.863281 38.09375 -11.09375 C 38.09375 -11.269531 38.09375 -11.515625 38.09375 -11.828125 C 38.09375 -12.140625 38.09375 -12.351562 38.09375 -12.46875 C 31.445312 -6.28125 27.609375 0.164062 26.578125 6.875 C 26.234375 9.050781 26.375 10.660156 27 11.703125 C 27.289062 12.210938 27.664062 12.554688 28.125 12.734375 C 28.238281 12.734375 28.609375 12.675781 29.234375 12.5625 C 30.898438 12.21875 32.347656 11.253906 33.578125 9.671875 C 34.816406 8.097656 35.75 6.363281 36.375 4.46875 Z M 36.375 4.46875 "/></g></g></g><g fill="#00bf63" fill-opacity="1"><g transform="translate(107.977037, 195.399653)"><g><path d="M 42.90625 -35.171875 C 43.539062 -35.972656 44.273438 -36.03125 45.109375 -35.34375 C 45.941406 -34.65625 46.128906 -33.910156 45.671875 -33.109375 C 45.492188 -32.828125 45.234375 -32.394531 44.890625 -31.8125 C 44.429688 -30.957031 44.054688 -30.285156 43.765625 -29.796875 C 43.484375 -29.304688 43.039062 -28.585938 42.4375 -27.640625 C 41.832031 -26.703125 41.316406 -25.945312 40.890625 -25.375 C 40.460938 -24.800781 39.90625 -24.125 39.21875 -23.34375 C 38.53125 -22.570312 37.910156 -21.984375 37.359375 -21.578125 C 36.816406 -21.179688 36.171875 -20.796875 35.421875 -20.421875 C 34.679688 -20.046875 33.96875 -19.84375 33.28125 -19.8125 C 32.59375 -19.789062 31.859375 -19.90625 31.078125 -20.15625 C 30.304688 -20.414062 29.519531 -20.863281 28.71875 -21.5 C 27 -22.9375 25.769531 -25.171875 25.03125 -28.203125 C 21.695312 -21.785156 17.769531 -18.519531 13.25 -18.40625 C 12.101562 -18.34375 11.023438 -18.484375 10.015625 -18.828125 C 9.015625 -19.171875 8.171875 -19.671875 7.484375 -20.328125 C 6.796875 -20.992188 6.175781 -21.742188 5.625 -22.578125 C 5.082031 -23.410156 4.65625 -24.34375 4.34375 -25.375 C 4.03125 -26.40625 3.785156 -27.421875 3.609375 -28.421875 C 3.441406 -29.421875 3.328125 -30.4375 3.265625 -31.46875 C 3.148438 -34.6875 3.492188 -37.753906 4.296875 -40.671875 C 5.503906 -44.859375 6.707031 -47.582031 7.90625 -48.84375 C 8.476562 -49.363281 9.125 -49.519531 9.84375 -49.3125 C 10.5625 -49.113281 11.035156 -48.644531 11.265625 -47.90625 C 11.492188 -47.269531 11.625 -46.550781 11.65625 -45.75 C 11.6875 -44.945312 11.65625 -44.039062 11.5625 -43.03125 C 11.476562 -42.03125 11.4375 -41.273438 11.4375 -40.765625 C 11.4375 -40.585938 11.4375 -39.4375 11.4375 -37.3125 C 11.4375 -35.195312 11.46875 -34.054688 11.53125 -33.890625 C 11.695312 -31.128906 12.039062 -29.148438 12.5625 -27.953125 C 12.726562 -27.546875 12.898438 -27.285156 13.078125 -27.171875 C 13.078125 -27.171875 13.21875 -27.203125 13.5 -27.265625 C 13.5625 -27.265625 13.617188 -27.265625 13.671875 -27.265625 C 16.191406 -27.953125 18.597656 -30.5625 20.890625 -35.09375 C 22.273438 -37.726562 23.679688 -41.597656 25.109375 -46.703125 C 25.453125 -47.785156 26.140625 -48.425781 27.171875 -48.625 C 28.203125 -48.832031 29.117188 -48.59375 29.921875 -47.90625 C 30.722656 -47.21875 30.953125 -46.300781 30.609375 -45.15625 C 29.984375 -42.570312 29.523438 -40.675781 29.234375 -39.46875 C 28.890625 -37.8125 28.773438 -36.238281 28.890625 -34.75 C 29.179688 -30.382812 30.015625 -27.457031 31.390625 -25.96875 C 31.847656 -25.507812 32.332031 -25.25 32.84375 -25.1875 C 33.363281 -25.132812 33.953125 -25.351562 34.609375 -25.84375 C 35.273438 -26.332031 35.722656 -26.691406 35.953125 -26.921875 C 36.179688 -27.148438 36.609375 -27.609375 37.234375 -28.296875 C 38.035156 -29.097656 39.925781 -31.390625 42.90625 -35.171875 Z M 42.90625 -35.171875 "/></g></g></g><g fill="#00bf63" fill-opacity="1"><g transform="translate(144.786247, 195.399653)"><g><path d="M 40.59375 -17.625 C 41.28125 -18.195312 42.066406 -18.269531 42.953125 -17.84375 C 43.847656 -17.414062 44.125 -16.742188 43.78125 -15.828125 C 43.4375 -14.910156 42.972656 -14.109375 42.390625 -13.421875 C 41.816406 -12.734375 41.097656 -12.203125 40.234375 -11.828125 C 39.378906 -11.453125 38.46875 -11.351562 37.5 -11.53125 C 34.914062 -11.988281 32.765625 -13.191406 31.046875 -15.140625 C 27.835938 -18.691406 26.546875 -23.445312 27.171875 -29.40625 C 27.285156 -29.976562 27.457031 -31.039062 27.6875 -32.59375 C 27.914062 -34.144531 28.070312 -35.363281 28.15625 -36.25 C 28.25 -37.132812 28.25 -38.207031 28.15625 -39.46875 C 28.070312 -40.726562 27.832031 -41.816406 27.4375 -42.734375 C 27.207031 -43.203125 26.960938 -43.492188 26.703125 -43.609375 C 26.441406 -43.722656 26.210938 -43.664062 26.015625 -43.4375 C 25.816406 -43.207031 25.628906 -42.945312 25.453125 -42.65625 C 25.285156 -42.363281 25.113281 -42.019531 24.9375 -41.625 C 24.082031 -39.21875 23.65625 -36.238281 23.65625 -32.6875 C 23.707031 -31.757812 23.40625 -30.976562 22.75 -30.34375 C 22.09375 -29.71875 21.332031 -29.40625 20.46875 -29.40625 C 19.550781 -29.40625 18.804688 -29.71875 18.234375 -30.34375 C 17.660156 -30.976562 17.316406 -31.757812 17.203125 -32.6875 C 17.140625 -33.195312 17.078125 -33.765625 17.015625 -34.390625 C 16.960938 -35.023438 16.921875 -35.628906 16.890625 -36.203125 C 16.867188 -36.773438 16.84375 -37.347656 16.8125 -37.921875 C 16.78125 -38.492188 16.707031 -39.082031 16.59375 -39.6875 C 16.476562 -40.289062 16.335938 -40.878906 16.171875 -41.453125 C 15.878906 -42.421875 15.5625 -42.992188 15.21875 -43.171875 C 14.988281 -43.234375 14.675781 -43.117188 14.28125 -42.828125 C 13.53125 -42.304688 12.785156 -40.898438 12.046875 -38.609375 C 11.867188 -38.097656 11.695312 -37.5 11.53125 -36.8125 C 11.53125 -36.238281 11.53125 -35.78125 11.53125 -35.4375 C 11.757812 -31.644531 11.875 -29.175781 11.875 -28.03125 C 11.875 -27.75 11.898438 -27.191406 11.953125 -26.359375 C 12.015625 -25.523438 12.046875 -24.863281 12.046875 -24.375 C 12.046875 -23.894531 11.972656 -23.320312 11.828125 -22.65625 C 11.679688 -22 11.492188 -21.46875 11.265625 -21.0625 C 10.804688 -20.375 10.175781 -19.972656 9.375 -19.859375 C 8.570312 -19.742188 7.882812 -19.972656 7.3125 -20.546875 C 6.90625 -20.953125 6.570312 -21.46875 6.3125 -22.09375 C 6.0625 -22.726562 5.90625 -23.257812 5.84375 -23.6875 C 5.789062 -24.125 5.707031 -24.8125 5.59375 -25.75 C 5.476562 -26.695312 5.390625 -27.257812 5.328125 -27.4375 C 5.097656 -29.15625 4.898438 -31.59375 4.734375 -34.75 C 4.734375 -35.320312 4.675781 -36.238281 4.5625 -37.5 C 4.445312 -38.757812 4.375 -39.789062 4.34375 -40.59375 C 4.3125 -41.394531 4.296875 -42.335938 4.296875 -43.421875 C 4.296875 -44.515625 4.394531 -45.535156 4.59375 -46.484375 C 4.800781 -47.429688 5.078125 -48.304688 5.421875 -49.109375 C 5.765625 -49.960938 6.40625 -50.488281 7.34375 -50.6875 C 8.289062 -50.894531 9.023438 -50.539062 9.546875 -49.625 C 10.054688 -48.59375 10.457031 -47.445312 10.75 -46.1875 C 11.320312 -46.875 11.953125 -47.445312 12.640625 -47.90625 C 14.015625 -48.59375 15.390625 -48.765625 16.765625 -48.421875 C 18.140625 -48.078125 19.34375 -47.359375 20.375 -46.265625 C 21.0625 -47.359375 21.925781 -48.25 22.96875 -48.9375 C 24.226562 -49.738281 25.570312 -50.109375 27 -50.046875 C 28.4375 -49.992188 29.785156 -49.566406 31.046875 -48.765625 C 33.285156 -47.328125 34.832031 -45.003906 35.6875 -41.796875 C 35.976562 -40.585938 36.164062 -39.28125 36.25 -37.875 C 36.332031 -36.476562 36.332031 -35.25 36.25 -34.1875 C 36.164062 -33.125 36.050781 -31.800781 35.90625 -30.21875 C 35.757812 -28.644531 35.6875 -27.398438 35.6875 -26.484375 C 35.570312 -23.453125 35.71875 -21.242188 36.125 -19.859375 C 36.46875 -18.828125 37.066406 -18.050781 37.921875 -17.53125 C 38.785156 -17.019531 39.675781 -17.050781 40.59375 -17.625 Z M 40.59375 -17.625 "/></g></g></g><g fill="#00bf63" fill-opacity="1"><g transform="translate(183.831536, 195.399653)"><g><path d="M 40.59375 -17.625 C 41.28125 -18.195312 42.066406 -18.269531 42.953125 -17.84375 C 43.847656 -17.414062 44.125 -16.742188 43.78125 -15.828125 C 43.4375 -14.910156 42.972656 -14.109375 42.390625 -13.421875 C 41.816406 -12.734375 41.097656 -12.203125 40.234375 -11.828125 C 39.378906 -11.453125 38.46875 -11.351562 37.5 -11.53125 C 34.914062 -11.988281 32.765625 -13.191406 31.046875 -15.140625 C 27.835938 -18.691406 26.546875 -23.445312 27.171875 -29.40625 C 27.285156 -29.976562 27.457031 -31.039062 27.6875 -32.59375 C 27.914062 -34.144531 28.070312 -35.363281 28.15625 -36.25 C 28.25 -37.132812 28.25 -38.207031 28.15625 -39.46875 C 28.070312 -40.726562 27.832031 -41.816406 27.4375 -42.734375 C 27.207031 -43.203125 26.960938 -43.492188 26.703125 -43.609375 C 26.441406 -43.722656 26.210938 -43.664062 26.015625 -43.4375 C 25.816406 -43.207031 25.628906 -42.945312 25.453125 -42.65625 C 25.285156 -42.363281 25.113281 -42.019531 24.9375 -41.625 C 24.082031 -39.21875 23.65625 -36.238281 23.65625 -32.6875 C 23.707031 -31.757812 23.40625 -30.976562 22.75 -30.34375 C 22.09375 -29.71875 21.332031 -29.40625 20.46875 -29.40625 C 19.550781 -29.40625 18.804688 -29.71875 18.234375 -30.34375 C 17.660156 -30.976562 17.316406 -31.757812 17.203125 -32.6875 C 17.140625 -33.195312 17.078125 -33.765625 17.015625 -34.390625 C 16.960938 -35.023438 16.921875 -35.628906 16.890625 -36.203125 C 16.867188 -36.773438 16.84375 -37.347656 16.8125 -37.921875 C 16.78125 -38.492188 16.707031 -39.082031 16.59375 -39.6875 C 16.476562 -40.289062 16.335938 -40.878906 16.171875 -41.453125 C 15.878906 -42.421875 15.5625 -42.992188 15.21875 -43.171875 C 14.988281 -43.234375 14.675781 -43.117188 14.28125 -42.828125 C 13.53125 -42.304688 12.785156 -40.898438 12.046875 -38.609375 C 11.867188 -38.097656 11.695312 -37.5 11.53125 -36.8125 C 11.53125 -36.238281 11.53125 -35.78125 11.53125 -35.4375 C 11.757812 -31.644531 11.875 -29.175781 11.875 -28.03125 C 11.875 -27.75 11.898438 -27.191406 11.953125 -26.359375 C 12.015625 -25.523438 12.046875 -24.863281 12.046875 -24.375 C 12.046875 -23.894531 11.972656 -23.320312 11.828125 -22.65625 C 11.679688 -22 11.492188 -21.46875 11.265625 -21.0625 C 10.804688 -20.375 10.175781 -19.972656 9.375 -19.859375 C 8.570312 -19.742188 7.882812 -19.972656 7.3125 -20.546875 C 6.90625 -20.953125 6.570312 -21.46875 6.3125 -22.09375 C 6.0625 -22.726562 5.90625 -23.257812 5.84375 -23.6875 C 5.789062 -24.125 5.707031 -24.8125 5.59375 -25.75 C 5.476562 -26.695312 5.390625 -27.257812 5.328125 -27.4375 C 5.097656 -29.15625 4.898438 -31.59375 4.734375 -34.75 C 4.734375 -35.320312 4.675781 -36.238281 4.5625 -37.5 C 4.445312 -38.757812 4.375 -39.789062 4.34375 -40.59375 C 4.3125 -41.394531 4.296875 -42.335938 4.296875 -43.421875 C 4.296875 -44.515625 4.394531 -45.535156 4.59375 -46.484375 C 4.800781 -47.429688 5.078125 -48.304688 5.421875 -49.109375 C 5.765625 -49.960938 6.40625 -50.488281 7.34375 -50.6875 C 8.289062 -50.894531 9.023438 -50.539062 9.546875 -49.625 C 10.054688 -48.59375 10.457031 -47.445312 10.75 -46.1875 C 11.320312 -46.875 11.953125 -47.445312 12.640625 -47.90625 C 14.015625 -48.59375 15.390625 -48.765625 16.765625 -48.421875 C 18.140625 -48.078125 19.34375 -47.359375 20.375 -46.265625 C 21.0625 -47.359375 21.925781 -48.25 22.96875 -48.9375 C 24.226562 -49.738281 25.570312 -50.109375 27 -50.046875 C 28.4375 -49.992188 29.785156 -49.566406 31.046875 -48.765625 C 33.285156 -47.328125 34.832031 -45.003906 35.6875 -41.796875 C 35.976562 -40.585938 36.164062 -39.28125 36.25 -37.875 C 36.332031 -36.476562 36.332031 -35.25 36.25 -34.1875 C 36.164062 -33.125 36.050781 -31.800781 35.90625 -30.21875 C 35.757812 -28.644531 35.6875 -27.398438 35.6875 -26.484375 C 35.570312 -23.453125 35.71875 -21.242188 36.125 -19.859375 C 36.46875 -18.828125 37.066406 -18.050781 37.921875 -17.53125 C 38.785156 -17.019531 39.675781 -17.050781 40.59375 -17.625 Z M 40.59375 -17.625 "/></g></g></g><g fill="#00bf63" fill-opacity="1"><g transform="translate(222.876825, 195.399653)"><g><path d="M 22.359375 -31.5625 C 23.160156 -32.3125 23.976562 -32.367188 24.8125 -31.734375 C 25.644531 -31.097656 25.832031 -30.296875 25.375 -29.328125 C 24.738281 -28.003906 24.003906 -26.769531 23.171875 -25.625 C 22.347656 -24.476562 21.390625 -23.414062 20.296875 -22.4375 C 19.203125 -21.46875 18.066406 -20.707031 16.890625 -20.15625 C 15.722656 -19.613281 14.4375 -19.398438 13.03125 -19.515625 C 11.625 -19.628906 10.234375 -20.144531 8.859375 -21.0625 C 7.253906 -22.101562 6.019531 -23.550781 5.15625 -25.40625 C 4.300781 -27.269531 3.898438 -29.207031 3.953125 -31.21875 C 4.015625 -32.476562 4.21875 -34.570312 4.5625 -37.5 C 4.90625 -40.476562 5.273438 -42.570312 5.671875 -43.78125 C 6.015625 -44.75 6.660156 -45.390625 7.609375 -45.703125 C 8.554688 -46.023438 9.429688 -45.925781 10.234375 -45.40625 C 11.035156 -44.894531 11.4375 -44.09375 11.4375 -43 C 11.550781 -41.394531 11.351562 -38.15625 10.84375 -33.28125 C 10.550781 -30.1875 10.921875 -27.921875 11.953125 -26.484375 C 12.585938 -25.742188 13.273438 -25.34375 14.015625 -25.28125 C 14.765625 -25.226562 15.566406 -25.488281 16.421875 -26.0625 C 17.285156 -26.632812 18.03125 -27.207031 18.65625 -27.78125 C 19.289062 -28.351562 20.007812 -29.082031 20.8125 -29.96875 C 21.613281 -30.851562 22.128906 -31.382812 22.359375 -31.5625 Z M 12.46875 -51.421875 C 11.894531 -50.273438 10.921875 -49.703125 9.546875 -49.703125 C 8.171875 -49.703125 7.207031 -50.273438 6.65625 -51.421875 C 6.113281 -52.566406 6.113281 -53.695312 6.65625 -54.8125 C 7.207031 -55.9375 8.171875 -56.5 9.546875 -56.5 C 10.921875 -56.5 11.894531 -55.9375 12.46875 -54.8125 C 13.039062 -53.695312 13.039062 -52.566406 12.46875 -51.421875 Z M 12.46875 -51.421875 "/></g></g></g><g fill="#00bf63" fill-opacity="1"><g transform="translate(240.077391, 195.399653)"><g><path d="M 30.875 -33.375 C 31.445312 -34.113281 32.191406 -34.210938 33.109375 -33.671875 C 34.023438 -33.128906 34.3125 -32.425781 33.96875 -31.5625 C 32.707031 -28.519531 30.785156 -25.921875 28.203125 -23.765625 C 25.628906 -21.617188 22.765625 -20.257812 19.609375 -19.6875 C 16.335938 -19.175781 13.703125 -19.265625 11.703125 -19.953125 C 8.597656 -21.160156 6.273438 -23.222656 4.734375 -26.140625 C 3.703125 -28.203125 3.082031 -30.4375 2.875 -32.84375 C 2.675781 -35.257812 2.992188 -37.640625 3.828125 -39.984375 C 4.660156 -42.335938 6.019531 -44.175781 7.90625 -45.5 C 10.78125 -47.5 13.648438 -48.128906 16.515625 -47.390625 C 19.492188 -46.585938 20.953125 -44.378906 20.890625 -40.765625 C 20.890625 -37.898438 20.070312 -35.421875 18.4375 -33.328125 C 16.8125 -31.234375 14.648438 -29.925781 11.953125 -29.40625 C 12.703125 -28.09375 13.75 -27.273438 15.09375 -26.953125 C 16.4375 -26.640625 18.054688 -26.570312 19.953125 -26.75 C 22.078125 -26.976562 23.710938 -27.492188 24.859375 -28.296875 C 27.835938 -30.410156 29.84375 -32.101562 30.875 -33.375 Z M 14.875 -41.796875 C 13.21875 -41.160156 12.039062 -39.941406 11.34375 -38.140625 C 10.65625 -36.335938 10.488281 -34.460938 10.84375 -32.515625 C 13.300781 -33.316406 15.078125 -34.75 16.171875 -36.8125 C 16.910156 -38.125 17.195312 -39.441406 17.03125 -40.765625 C 16.96875 -41.503906 16.765625 -41.945312 16.421875 -42.09375 C 16.078125 -42.238281 15.5625 -42.140625 14.875 -41.796875 Z M 14.875 -41.796875 "/></g></g></g><g fill="#00bf63" fill-opacity="1"><g transform="translate(265.868605, 195.399653)"><g/></g></g><g clip-path="url(#86b6b8bce8)"><path fill="#f39200" d="M 104.625 194.253906 C 113.492188 189.625 123.839844 188.558594 133.675781 188.316406 C 144.261719 188.039062 154.820312 188.742188 165.347656 189.714844 C 176 190.722656 186.617188 191.96875 197.296875 192.730469 C 202.605469 193.097656 207.945312 193.3125 213.285156 193.339844 C 218.292969 193.371094 223.359375 193.402344 228.367188 192.792969 C 233.40625 192.183594 238.441406 190.75 242.304688 187.25 C 245.683594 184.171875 248.125 179.480469 247.191406 174.820312 C 246.800781 172.871094 243.78125 173.328125 243.78125 175.277344 C 243.8125 179.421875 242.214844 182.921875 239.046875 185.542969 C 235.488281 188.496094 230.71875 189.535156 226.285156 190.082031 C 216.210938 191.269531 205.953125 190.875 195.847656 190.171875 C 175.335938 188.710938 154.882812 185.328125 134.277344 186.0625 C 123.78125 186.394531 113.160156 187.613281 104.019531 193.21875 C 103.355469 193.617188 103.929688 194.621094 104.625 194.253906 Z M 104.625 194.253906 " fill-opacity="1" fill-rule="nonzero"/></g><path fill="#f39200" d="M 108.605469 187.492188 C 117.59375 184.171875 126.886719 183.378906 136.390625 183.320312 C 136.902344 183.320312 137.082031 182.4375 136.511719 182.375 C 127.007812 180.941406 117.113281 183.226562 108.394531 187.097656 C 108.214844 187.1875 108.363281 187.582031 108.605469 187.492188 Z M 108.605469 187.492188 " fill-opacity="1" fill-rule="nonzero"/><g clip-path="url(#74ac2075b3)"><path fill="#f39200" d="M 238.773438 192.824219 C 242.246094 192.335938 245.441406 190.660156 247.855469 188.132812 C 249.09375 186.851562 250.148438 185.390625 250.871094 183.777344 C 251.476562 182.496094 252.589844 180.210938 251.6875 178.902344 C 251.265625 178.292969 250.539062 178.203125 249.996094 178.6875 C 248.972656 179.574219 249.121094 181.582031 248.699219 182.863281 C 248.21875 184.324219 247.523438 185.695312 246.648438 186.945312 C 244.6875 189.65625 241.882812 191.636719 238.683594 192.519531 C 238.472656 192.550781 238.5625 192.855469 238.773438 192.824219 Z M 238.773438 192.824219 " fill-opacity="1" fill-rule="nonzero"/></g><g fill="#00bf63" fill-opacity="1"><g transform="translate(110.174073, 212.116071)"><g><path d="M 1.15625 -11.875 C 1.019531 -12.226562 0.910156 -12.503906 0.828125 -12.703125 C 0.753906 -12.910156 0.71875 -13.019531 0.71875 -13.03125 L 2.453125 -13.03125 L 5.921875 -3.90625 L 5.921875 -13.03125 L 6.78125 -13.03125 L 6.78125 0 L 5.59375 0 L 2.015625 -9.5625 L 2.015625 0 L 1.15625 0 Z M 1.15625 -11.875 "/></g></g></g><g fill="#00bf63" fill-opacity="1"><g transform="translate(132.350046, 212.116071)"><g><path d="M 0.90625 -10.421875 L 4.8125 -10.421875 L 4.375 -9.5625 L 2.640625 -9.5625 L 2.640625 -6.515625 L 4.375 -6.515625 L 3.9375 -5.65625 L 2.640625 -5.65625 L 2.640625 -0.859375 L 4.8125 -0.859375 L 4.8125 0 L 0.90625 0 Z M 0.90625 -10.421875 "/></g></g></g><g fill="#00bf63" fill-opacity="1"><g transform="translate(152.096027, 212.116071)"><g><path d="M 1.15625 -9.125 L 0.71875 -10.421875 L 2.890625 -10.421875 C 3.398438 -10.421875 3.84375 -10.367188 4.21875 -10.265625 C 4.59375 -10.160156 4.910156 -9.988281 5.171875 -9.75 C 5.429688 -9.519531 5.625 -9.210938 5.75 -8.828125 C 5.875 -8.441406 5.9375 -7.957031 5.9375 -7.375 C 5.9375 -6.800781 5.875 -6.316406 5.75 -5.921875 C 5.625 -5.535156 5.429688 -5.222656 5.171875 -4.984375 C 4.910156 -4.753906 4.59375 -4.585938 4.21875 -4.484375 C 3.84375 -4.390625 3.398438 -4.34375 2.890625 -4.34375 L 2.890625 0 L 1.15625 0 Z M 2.890625 -5.1875 C 3.179688 -5.1875 3.421875 -5.25 3.609375 -5.375 C 3.796875 -5.5 3.941406 -5.664062 4.046875 -5.875 C 4.160156 -6.082031 4.238281 -6.316406 4.28125 -6.578125 C 4.320312 -6.835938 4.34375 -7.101562 4.34375 -7.375 C 4.34375 -7.65625 4.320312 -7.921875 4.28125 -8.171875 C 4.238281 -8.429688 4.160156 -8.664062 4.046875 -8.875 C 3.941406 -9.09375 3.796875 -9.265625 3.609375 -9.390625 C 3.421875 -9.515625 3.179688 -9.582031 2.890625 -9.59375 Z M 2.890625 -5.1875 "/></g></g></g><g fill="#00bf63" fill-opacity="1"><g transform="translate(172.976005, 212.116071)"><g><path d="M 1.875 -9.125 L 1.65625 -10.421875 L 3.40625 -10.421875 L 5.125 0 L 3.40625 0 L 3.046875 -2.171875 L 1.578125 -2.171875 L 1.21875 0 L 0.359375 0 Z M 2.890625 -3.046875 L 2.328125 -6.515625 L 1.734375 -3.046875 Z M 2.890625 -3.046875 "/></g></g></g><g fill="#00bf63" fill-opacity="1"><g transform="translate(192.865985, 212.116071)"><g><path d="M 0.984375 -10.421875 L 2.734375 -10.421875 L 2.734375 -0.859375 L 4.890625 -0.859375 L 4.890625 0 L 0.984375 0 Z M 0.984375 -10.421875 "/></g></g></g></svg>