<?xml version="1.0" encoding="utf-8"?>
<svg id="Plate" xmlns="http://www.w3.org/2000/svg" width="50.528" height="50.528" viewBox="0 0 50.528 50.528">
  <g id="Group_70" data-name="Group 70" transform="translate(34.789 22.958)">
    <g id="Group_66" data-name="Group 66" transform="translate(3.607 5.873)">
      <path id="Path_6309" data-name="Path 6309" d="M98.58,83.584a2.767,2.767,0,0,1-.784-.112c-2.276-.667-2.884-3.371-2.692-4.6a.712.712,0,0,1,1.407.219c-.1.665.258,2.6,1.686,3.02a1.407,1.407,0,0,0,1.157-.174,1.313,1.313,0,0,0,.614-.869,1.574,1.574,0,0,0-.549-1.256.712.712,0,0,1,1.042-.97,2.884,2.884,0,0,1,.914,2.442,2.714,2.714,0,0,1-1.256,1.854A2.868,2.868,0,0,1,98.58,83.584Z" transform="translate(-95.071 -78.267)" fill="#003b20"/>
    </g>
    <g id="Group_67" data-name="Group 67" transform="translate(0.837)">
      <path id="Path_6310" data-name="Path 6310" d="M92.189,73.454a.707.707,0,0,1-.484-.19c-1.8-1.671-1.736-3.288-1.077-4.245a2.72,2.72,0,0,1,3.492-.743,2.378,2.378,0,0,1,.738.582,2.436,2.436,0,0,1,.555,1.163.711.711,0,0,1-1.4.235,1.021,1.021,0,0,0-.235-.472.918.918,0,0,0-.285-.231,1.309,1.309,0,0,0-1.691.273c-.41.6-.076,1.514.873,2.4a.712.712,0,0,1-.484,1.233Z" transform="translate(-90.205 -67.95)" fill="#003b20"/>
    </g>
    <g id="Group_68" data-name="Group 68" transform="translate(6.896 1.67)">
      <path id="Path_6311" data-name="Path 6311" d="M102.476,76.816a.712.712,0,0,1-.346-1.334,1.488,1.488,0,0,0,.725-1.811c-.438-1.286-1.13-1.348-1.358-1.369a.712.712,0,1,1,.128-1.417,3.061,3.061,0,0,1,2.577,2.328,2.888,2.888,0,0,1-1.381,3.513A.706.706,0,0,1,102.476,76.816Z" transform="translate(-100.849 -70.884)" fill="#003b20"/>
    </g>
    <g id="Group_69" data-name="Group 69" transform="translate(0 4.081)">
      <path id="Path_6312" data-name="Path 6312" d="M91.5,81.456a1.335,1.335,0,0,1-1.1-.583l-1.453-2.251a1.334,1.334,0,0,1,.261-1.739l1.89-1.6a.712.712,0,0,1,.918,1.087l-1.83,1.544,1.347,2.087,1.656-.795a.712.712,0,1,1,.616,1.283l-1.726.828A1.286,1.286,0,0,1,91.5,81.456Zm-.046-1.415h0Z" transform="translate(-88.734 -75.119)" fill="#003b20"/>
    </g>
  </g>
  <g id="Group_75" data-name="Group 75" transform="translate(29.877 9.349)">
    <g id="Group_71" data-name="Group 71" transform="translate(0 2.004)">
      <path id="Path_6313" data-name="Path 6313" d="M83.619,53.3a3.656,3.656,0,0,1-2.811-1.154,2.835,2.835,0,0,1-.68-2.244,2.715,2.715,0,0,1,1.144-1.926,2.884,2.884,0,0,1,2.6-.211.712.712,0,0,1-.435,1.355,1.579,1.579,0,0,0-1.371.036,1.315,1.315,0,0,0-.527.926,1.4,1.4,0,0,0,.335,1.121c.987,1.116,2.893.62,3.449.244a.712.712,0,1,1,.8,1.179A4.756,4.756,0,0,1,83.619,53.3Z" transform="translate(-80.104 -47.562)" fill="#003b20"/>
    </g>
    <g id="Group_72" data-name="Group 72" transform="translate(7.174 2.934)">
      <path id="Path_6314" data-name="Path 6314" d="M95.074,54.429a5.154,5.154,0,0,1-1.922-.416.711.711,0,1,1,.533-1.319c1.2.484,2.173.4,2.539-.228a1.309,1.309,0,0,0-.472-1.646.913.913,0,0,0-.327-.16,1.031,1.031,0,0,0-.53-.011.712.712,0,1,1-.383-1.371,2.438,2.438,0,0,1,1.288.009,2.343,2.343,0,0,1,.839.42,2.72,2.72,0,0,1,.813,3.477A2.635,2.635,0,0,1,95.074,54.429Z" transform="translate(-92.707 -49.196)" fill="#003b20"/>
    </g>
    <g id="Group_73" data-name="Group 73" transform="translate(2.852)">
      <path id="Path_6315" data-name="Path 6315" d="M85.826,47.576l-.05,0a.712.712,0,0,1-.661-.759,2.886,2.886,0,0,1,2.594-2.742,3.057,3.057,0,0,1,3.2,1.344.712.712,0,0,1-1.23.717c-.116-.2-.463-.8-1.816-.648a1.487,1.487,0,0,0-1.331,1.426A.711.711,0,0,1,85.826,47.576Z" transform="translate(-85.114 -44.041)" fill="#003b20"/>
    </g>
    <g id="Group_74" data-name="Group 74" transform="translate(2.693 6.333)">
      <path id="Path_6316" data-name="Path 6316" d="M88.787,59.486a1.336,1.336,0,0,1-.178-.012l-2.639-.356a1.336,1.336,0,0,1-1.136-1.342l.016-1.9a.712.712,0,0,1,.712-.705h.006a.711.711,0,0,1,.705.718l-.015,1.837,2.461.331.62-2.312a.711.711,0,0,1,1.374.369l-.641,2.39A1.334,1.334,0,0,1,88.787,59.486ZM86.258,57.8v0Z" transform="translate(-84.835 -55.167)" fill="#003b20"/>
    </g>
  </g>
  <g id="Group_80" data-name="Group 80" transform="translate(22.398 20.193)">
    <g id="Group_76" data-name="Group 76" transform="translate(0 3.868)">
      <path id="Path_6317" data-name="Path 6317" d="M69.866,75.3a3.186,3.186,0,0,1-.494-.038,2.84,2.84,0,0,1-1.956-1.292,2.713,2.713,0,0,1-.35-2.213,2.887,2.887,0,0,1,1.865-1.823.712.712,0,0,1,.531,1.321,1.57,1.57,0,0,0-1.03.9,1.313,1.313,0,0,0,.186,1.049,1.4,1.4,0,0,0,.973.648c1.47.229,2.622-1.369,2.81-2.016a.712.712,0,1,1,1.366.4A4.544,4.544,0,0,1,69.866,75.3Z" transform="translate(-66.965 -69.887)" fill="#003b20"/>
    </g>
    <g id="Group_77" data-name="Group 77" transform="translate(6.368 0.186)">
      <path id="Path_6318" data-name="Path 6318" d="M80.041,68.995a.712.712,0,0,1-.217-1.389c1.234-.394,1.926-1.083,1.808-1.8a1.3,1.3,0,0,0-1.378-.965h-.038a.91.91,0,0,0-.355.086,1.031,1.031,0,0,0-.413.33.712.712,0,1,1-1.17-.811,2.451,2.451,0,0,1,1-.815,2.344,2.344,0,0,1,.916-.213h.061a2.71,2.71,0,0,1,2.783,2.156c.19,1.146-.441,2.637-2.778,3.385A.7.7,0,0,1,80.041,68.995Z" transform="translate(-78.152 -63.42)" fill="#003b20"/>
    </g>
    <g id="Group_78" data-name="Group 78" transform="translate(1.036)">
      <path id="Path_6319" data-name="Path 6319" d="M69.954,68.331a.711.711,0,0,1-.578-.3,2.886,2.886,0,0,1,.243-3.767,3.064,3.064,0,0,1,3.323-1.012.712.712,0,1,1-.487,1.337c-.214-.078-.867-.316-1.811.662a1.487,1.487,0,0,0-.113,1.948.712.712,0,0,1-.577,1.128Z" transform="translate(-68.785 -63.092)" fill="#003b20"/>
    </g>
    <g id="Group_79" data-name="Group 79" transform="translate(4.08 4.338)">
      <path id="Path_6320" data-name="Path 6320" d="M76.536,76.664a1.324,1.324,0,0,1-1.039-.5l-1.2-1.476a.712.712,0,0,1,1.1-.9l1.161,1.423L78.663,73.9l-1-2.175a.711.711,0,0,1,1.293-.595l1.034,2.248a1.337,1.337,0,0,1-.5,1.685l-2.259,1.413A1.352,1.352,0,0,1,76.536,76.664Zm.069-1.392h0Z" transform="translate(-74.133 -70.713)" fill="#003b20"/>
    </g>
  </g>
  <g id="Group_85" data-name="Group 85" transform="translate(17.714 34.085)">
    <g id="Group_81" data-name="Group 81" transform="translate(3.704 1.597)">
      <path id="Path_6321" data-name="Path 6321" d="M68.15,95.172a.567.567,0,0,1-.381-.146,2.644,2.644,0,0,1-.715-2.219l0-.239c0-.3-.012-.792-.252-.992a1.209,1.209,0,0,0-.889-.1.569.569,0,0,1-.188-1.123,2.168,2.168,0,0,1,1.806.348,2.332,2.332,0,0,1,.662,1.849l0,.236c.016.841.035,1.12.339,1.393a.569.569,0,0,1-.381.992Z" transform="translate(-65.245 -90.303)" fill="#003b20"/>
    </g>
    <g id="Group_82" data-name="Group 82" transform="translate(1.785 0.666)">
      <path id="Path_6322" data-name="Path 6322" d="M64.779,93.587a.569.569,0,0,1-.381-.146,2.646,2.646,0,0,1-.715-2.219l0-.162a1.576,1.576,0,0,0-.371-1.169.814.814,0,0,0-.7-.017.569.569,0,0,1-.33-1.089,1.848,1.848,0,0,1,1.7.185,2.575,2.575,0,0,1,.841,2.067l0,.165c.016.842.035,1.121.339,1.394a.569.569,0,0,1-.381.992Z" transform="translate(-61.874 -88.668)" fill="#003b20"/>
    </g>
    <g id="Group_83" data-name="Group 83">
      <path id="Path_6323" data-name="Path 6323" d="M61.5,92.2a.567.567,0,0,1-.38-.146,2.641,2.641,0,0,1-.715-2.219l0-.163a1.6,1.6,0,0,0-.276-.9.511.511,0,0,0-.6-.075.569.569,0,0,1-.431-1.054,1.644,1.644,0,0,1,1.929.428,2.7,2.7,0,0,1,.518,1.578l0,.165c.015.841.035,1.12.339,1.394a.569.569,0,0,1-.381.992Z" transform="translate(-58.737 -87.498)" fill="#003b20"/>
    </g>
    <g id="Group_84" data-name="Group 84" transform="translate(6.063 4.306)">
      <path id="Path_6324" data-name="Path 6324" d="M69.958,97.211a.556.556,0,0,1-.245-.056.569.569,0,0,1-.268-.759A2.445,2.445,0,0,1,70.7,95.1a.569.569,0,1,1,.427,1.055,1.369,1.369,0,0,0-.652.728A.569.569,0,0,1,69.958,97.211Z" transform="translate(-69.389 -95.063)" fill="#003b20"/>
    </g>
  </g>
  <g id="Group_90" data-name="Group 90" transform="translate(31.723 37.364)">
    <g id="Group_86" data-name="Group 86" transform="translate(0.001 2.541)">
      <path id="Path_6325" data-name="Path 6325" d="M87.043,100.019a2.966,2.966,0,0,1-1.331-.405l-.208-.107c-.75-.383-1.005-.5-1.391-.359a.569.569,0,1,1-.388-1.07,2.643,2.643,0,0,1,2.3.416l.211.108c.264.137.708.364.994.245.248-.1.412-.457.507-.738a.569.569,0,1,1,1.079.364A2.165,2.165,0,0,1,87.654,99.9,1.615,1.615,0,0,1,87.043,100.019Z" transform="translate(-83.349 -97.722)" fill="#003b20"/>
    </g>
    <g id="Group_87" data-name="Group 87" transform="translate(1.682 1.263)">
      <path id="Path_6326" data-name="Path 6326" d="M90.051,97.737a3.33,3.33,0,0,1-1.45-.4l-.145-.074c-.75-.384-1.006-.5-1.391-.359a.569.569,0,1,1-.388-1.071,2.645,2.645,0,0,1,2.3.417l.142.072a1.569,1.569,0,0,0,1.206.223.809.809,0,0,0,.345-.61.569.569,0,0,1,1.116.223,1.85,1.85,0,0,1-.964,1.412A1.743,1.743,0,0,1,90.051,97.737Z" transform="translate(-86.302 -95.476)" fill="#003b20"/>
    </g>
    <g id="Group_88" data-name="Group 88" transform="translate(3.372)">
      <path id="Path_6327" data-name="Path 6327" d="M92.83,95.416a2.852,2.852,0,0,1-1.259-.32l-.146-.075c-.751-.384-1.006-.5-1.391-.359a.569.569,0,1,1-.386-1.07,2.647,2.647,0,0,1,2.295.415l.145.073a1.592,1.592,0,0,0,.924.18.512.512,0,0,0,.35-.495.569.569,0,0,1,1.133.117,1.643,1.643,0,0,1-1.287,1.5A2.206,2.206,0,0,1,92.83,95.416Z" transform="translate(-89.271 -93.258)" fill="#003b20"/>
    </g>
    <g id="Group_89" data-name="Group 89" transform="translate(0 2.889)">
      <path id="Path_6328" data-name="Path 6328" d="M84.359,100.788l-.061,0a.569.569,0,0,1-.505-.627,1.365,1.365,0,0,0-.335-.918.569.569,0,1,1,.917-.674,2.442,2.442,0,0,1,.549,1.713A.569.569,0,0,1,84.359,100.788Z" transform="translate(-83.348 -98.334)" fill="#003b20"/>
    </g>
  </g>
  <g id="Group_95" data-name="Group 95" transform="translate(25.088 33.476)">
    <g id="Group_91" data-name="Group 91" transform="translate(0.242 0.675)">
      <path id="Path_6329" data-name="Path 6329" d="M75.541,91.086a1.565,1.565,0,0,1-.163-.009A2.333,2.333,0,0,1,73.8,89.91l-.133-.192c-.482-.692-.654-.914-1.059-.972a.569.569,0,1,1,.162-1.127c.914.131,1.319.713,1.832,1.449l.134.194c.169.243.451.651.762.683.274.037.578-.209.793-.413a.569.569,0,1,1,.782.828A2.269,2.269,0,0,1,75.541,91.086Z" transform="translate(-72.117 -87.613)" fill="#003b20"/>
    </g>
    <g id="Group_92" data-name="Group 92" transform="translate(2.326 0.338)">
      <path id="Path_6330" data-name="Path 6330" d="M79.324,90.509h-.056a2.573,2.573,0,0,1-1.849-1.248l-.094-.135c-.481-.69-.652-.911-1.057-.969a.57.57,0,1,1,.162-1.128c.912.132,1.317.712,1.829,1.445l.093.133c.328.468.686.754.959.764.183.014.381-.121.591-.376a.569.569,0,0,1,.881.722A1.872,1.872,0,0,1,79.324,90.509Z" transform="translate(-75.779 -87.022)" fill="#003b20"/>
    </g>
    <g id="Group_93" data-name="Group 93" transform="translate(4.422)">
      <path id="Path_6331" data-name="Path 6331" d="M82.843,89.755a1.4,1.4,0,0,1-.433-.067A2.7,2.7,0,0,1,81.1,88.665l-.1-.136c-.481-.689-.652-.91-1.056-.968a.57.57,0,0,1,.162-1.128c.913.131,1.317.71,1.828,1.444l.094.134a1.592,1.592,0,0,0,.731.595.516.516,0,0,0,.541-.272.569.569,0,0,1,.945.636A1.694,1.694,0,0,1,82.843,89.755Z" transform="translate(-79.461 -86.428)" fill="#003b20"/>
    </g>
    <g id="Group_94" data-name="Group 94" transform="translate(0 0.697)">
      <path id="Path_6332" data-name="Path 6332" d="M72.261,90.16a.568.568,0,0,1-.47-.889,1.372,1.372,0,0,0,.137-.968.569.569,0,1,1,1.127-.162,2.446,2.446,0,0,1-.322,1.77A.57.57,0,0,1,72.261,90.16Z" transform="translate(-71.692 -87.652)" fill="#003b20"/>
    </g>
  </g>
  <g id="Group_100" data-name="Group 100" transform="translate(10.304 35.256)">
    <g id="Group_96" data-name="Group 96" transform="translate(2.998 2.665)">
      <path id="Path_6333" data-name="Path 6333" d="M52.787,96.583a1.623,1.623,0,0,1-.679-.143,2.162,2.162,0,0,1-1.1-1.475.569.569,0,1,1,1.093-.319,1.207,1.207,0,0,0,.476.756c.286.131.734-.08,1-.2l.219-.1a2.64,2.64,0,0,1,2.308-.322.569.569,0,0,1-.43,1.054c-.377-.154-.638-.051-1.4.3l-.216.1A3.075,3.075,0,0,1,52.787,96.583Z" transform="translate(-50.987 -94.237)" fill="#003b20"/>
    </g>
    <g id="Group_97" data-name="Group 97" transform="translate(1.37 1.32)">
      <path id="Path_6334" data-name="Path 6334" d="M49.887,94.183a1.775,1.775,0,0,1-.848-.2,1.852,1.852,0,0,1-.906-1.449.569.569,0,0,1,1.125-.178.806.806,0,0,0,.32.623,1.553,1.553,0,0,0,1.214-.174l.149-.068a2.64,2.64,0,0,1,2.308-.322.569.569,0,0,1-.43,1.054c-.377-.154-.638-.051-1.4.3l-.151.069A3.419,3.419,0,0,1,49.887,94.183Z" transform="translate(-48.126 -91.874)" fill="#003b20"/>
    </g>
    <g id="Group_98" data-name="Group 98">
      <path id="Path_6335" data-name="Path 6335" d="M47.413,91.759a2.236,2.236,0,0,1-.468-.049,1.644,1.644,0,0,1-1.225-1.551.569.569,0,0,1,1.136-.07.514.514,0,0,0,.33.508,1.6,1.6,0,0,0,.932-.143l.146-.068a2.645,2.645,0,0,1,2.31-.322.569.569,0,0,1-.43,1.054c-.378-.154-.638-.05-1.4.3l-.149.068A2.912,2.912,0,0,1,47.413,91.759Z" transform="translate(-45.719 -89.555)" fill="#003b20"/>
    </g>
    <g id="Group_99" data-name="Group 99" transform="translate(6.838 3.188)">
      <path id="Path_6336" data-name="Path 6336" d="M58.3,97.591a.57.57,0,0,1-.568-.532,2.449,2.449,0,0,1,.618-1.689.569.569,0,0,1,.889.71,1.369,1.369,0,0,0-.371.9.569.569,0,0,1-.531.605Z" transform="translate(-57.732 -95.156)" fill="#003b20"/>
    </g>
  </g>
  <g id="Group_105" data-name="Group 105" transform="translate(21.29 41.839)">
    <g id="Group_101" data-name="Group 101" transform="translate(3.926)">
      <path id="Path_6337" data-name="Path 6337" d="M76.5,104.563a.57.57,0,0,1-.076-.005c-.914-.121-1.324-.7-1.843-1.425l-.139-.2c-.171-.241-.458-.647-.769-.676-.259-.032-.576.215-.79.421a.569.569,0,1,1-.79-.82,2.151,2.151,0,0,1,1.687-.734,2.328,2.328,0,0,1,1.59,1.153l.137.192c.488.684.662.9,1.067.957a.569.569,0,0,1-.075,1.133Z" transform="translate(-71.915 -101.12)" fill="#003b20"/>
    </g>
    <g id="Group_102" data-name="Group 102" transform="translate(1.845 0.345)">
      <path id="Path_6338" data-name="Path 6338" d="M72.842,105.182a.571.571,0,0,1-.076-.005c-.915-.121-1.325-.7-1.845-1.428l-.093-.13a1.577,1.577,0,0,0-.967-.755c-.183-.01-.38.124-.587.383a.569.569,0,1,1-.888-.713,1.861,1.861,0,0,1,1.507-.808,2.571,2.571,0,0,1,1.861,1.23l.094.132c.49.686.664.906,1.068.96a.569.569,0,0,1-.074,1.133Z" transform="translate(-68.26 -101.726)" fill="#003b20"/>
    </g>
    <g id="Group_103" data-name="Group 103" transform="translate(0 0.862)">
      <path id="Path_6339" data-name="Path 6339" d="M69.353,105.934a.57.57,0,0,1-.076-.005c-.914-.122-1.325-.7-1.844-1.428l-.094-.132a1.6,1.6,0,0,0-.737-.587.519.519,0,0,0-.538.278.569.569,0,1,1-.951-.625,1.64,1.64,0,0,1,1.833-.738,2.7,2.7,0,0,1,1.319,1.009l.1.134c.489.686.663.906,1.068.959a.569.569,0,0,1-.075,1.134Z" transform="translate(-65.018 -102.635)" fill="#003b20"/>
    </g>
    <g id="Group_104" data-name="Group 104" transform="translate(7.915 0.91)">
      <path id="Path_6340" data-name="Path 6340" d="M79.527,105.229a.57.57,0,0,1-.562-.482,2.446,2.446,0,0,1,.3-1.773.569.569,0,0,1,.949.629,1.364,1.364,0,0,0-.126.969.57.57,0,0,1-.475.65A.581.581,0,0,1,79.527,105.229Z" transform="translate(-78.923 -102.719)" fill="#003b20"/>
    </g>
  </g>
  <g id="Group_106" data-name="Group 106" transform="translate(0 0)">
    <path id="Path_6341" data-name="Path 6341" d="M52.881,78.145A25.264,25.264,0,1,1,78.145,52.881,25.292,25.292,0,0,1,52.881,78.145Zm0-49.1a23.841,23.841,0,1,0,23.841,23.84A23.867,23.867,0,0,0,52.881,29.04Z" transform="translate(-27.617 -27.617)" fill="#003b20"/>
  </g>
  <g id="Group_111" data-name="Group 111" transform="translate(4.309 6.495)">
    <g id="Group_107" data-name="Group 107">
      <path id="Path_6342" data-name="Path 6342" d="M44.719,65.481a5.621,5.621,0,0,1-1.552-.235,11.376,11.376,0,0,1-6.987-5.363,8.1,8.1,0,0,1-.607-6.343c.985-3.027,5.056-7.72,9.47-10.915A27.509,27.509,0,0,1,48.9,40.267c2.551-1.269,4.614-1.565,6.131-.881A3.346,3.346,0,0,1,56.855,41.4a7.285,7.285,0,0,1,.153,3.044c-.385,2.57-1.933,4.778-3.3,6.726-.432.615-.84,1.2-1.193,1.762a42.743,42.743,0,0,0-3.592,8.408c-.14.408-.275.8-.407,1.175A3.926,3.926,0,0,1,44.719,65.481Zm8.516-25.028a8.6,8.6,0,0,0-3.706,1.088,26.066,26.066,0,0,0-3.652,2.237c-4.611,3.338-8.172,7.809-8.951,10.2a6.594,6.594,0,0,0,.511,5.235,9.95,9.95,0,0,0,6.124,4.662h0a2.607,2.607,0,0,0,3.614-1.831c.13-.372.264-.762.4-1.167a43.764,43.764,0,0,1,3.731-8.7c.373-.6.791-1.194,1.234-1.825,1.338-1.909,2.721-3.882,3.056-6.121a5.887,5.887,0,0,0-.119-2.458,1.915,1.915,0,0,0-1.067-1.107A2.927,2.927,0,0,0,53.235,40.452Z" transform="translate(-35.187 -39.027)" fill="#003b20"/>
    </g>
    <g id="Group_108" data-name="Group 108" transform="translate(3.4 15.292)">
      <path id="Path_6343" data-name="Path 6343" d="M48.27,69.884a.7.7,0,0,1-.265-.051l-6.4-2.568a.712.712,0,1,1,.53-1.321l6.4,2.569a.711.711,0,0,1-.265,1.372Z" transform="translate(-41.16 -65.892)" fill="#003b20"/>
    </g>
    <g id="Group_109" data-name="Group 109" transform="translate(6.238 10.835)">
      <path id="Path_6344" data-name="Path 6344" d="M52.808,61.877a.715.715,0,0,1-.265-.051l-5.952-2.39a.712.712,0,0,1,.531-1.321l5.952,2.39a.712.712,0,0,1-.265,1.372Z" transform="translate(-46.145 -58.063)" fill="#003b20"/>
    </g>
    <g id="Group_110" data-name="Group 110" transform="translate(10.277 6.862)">
      <path id="Path_6345" data-name="Path 6345" d="M58.461,54.317a.712.712,0,0,1-.265-.051l-4.509-1.811a.712.712,0,1,1,.531-1.321l4.509,1.81a.712.712,0,0,1-.265,1.372Z" transform="translate(-53.241 -51.083)" fill="#003b20"/>
    </g>
  </g>
</svg>
