<?xml version="1.0" encoding="utf-8"?>
<svg id="Kid" xmlns="http://www.w3.org/2000/svg" width="42.709" height="42.313" viewBox="0 0 42.709 42.313">
  <g id="Group_113" data-name="Group 113" transform="translate(4.89 27.614)">
    <path id="Path_6346" data-name="Path 6346" d="M60.018,98.051h-.956A15.81,15.81,0,0,1,43.08,84.182.712.712,0,1,1,44.5,84.03c.759,7.064,7.157,12.6,14.567,12.6h.956c7.431,0,13.832-5.551,14.571-12.637a.712.712,0,0,1,1.416.147C75.191,91.94,68.168,98.051,60.018,98.051Z" transform="translate(-43.076 -83.353)" fill="#003b20"/>
  </g>
  <g id="Group_114" data-name="Group 114" transform="translate(0 21.057)">
    <path id="Path_6347" data-name="Path 6347" d="M38.615,80.094a4.131,4.131,0,1,1,1.392-8.02.711.711,0,0,1-.48,1.339,2.708,2.708,0,1,0,.079,5.07.712.712,0,0,1,.523,1.325A4.1,4.1,0,0,1,38.615,80.094Z" transform="translate(-34.485 -71.833)" fill="#003b20"/>
  </g>
  <g id="Group_115" data-name="Group 115" transform="translate(36.614 20.969)">
    <path id="Path_6348" data-name="Path 6348" d="M100.773,79.939a4.116,4.116,0,0,1-1.512-.286.711.711,0,1,1,.521-1.324,2.707,2.707,0,1,0,.079-5.071.711.711,0,1,1-.478-1.34,4.131,4.131,0,1,1,1.391,8.02Z" transform="translate(-98.809 -71.679)" fill="#003b20"/>
  </g>
  <g id="Group_116" data-name="Group 116" transform="translate(5.992 13.129)">
    <path id="Path_6349" data-name="Path 6349" d="M45.724,64.6a.712.712,0,0,1-.229-1.385,10.6,10.6,0,0,0,5.874-4.941.712.712,0,1,1,1.249.681,12.018,12.018,0,0,1-6.667,5.607A.714.714,0,0,1,45.724,64.6Z" transform="translate(-45.012 -57.904)" fill="#003b20"/>
  </g>
  <g id="Group_117" data-name="Group 117" transform="translate(9.238 11.084)">
    <path id="Path_6350" data-name="Path 6350" d="M52.969,61.658a10.924,10.924,0,0,1-1.651-.128.711.711,0,1,1,.215-1.407c2.949.449,7.848-.919,9-5.279a.712.712,0,1,1,1.376.363A9.254,9.254,0,0,1,52.969,61.658Z" transform="translate(-50.714 -54.313)" fill="#003b20"/>
  </g>
  <g id="Group_118" data-name="Group 118" transform="translate(7.716 0)">
    <path id="Path_6351" data-name="Path 6351" d="M48.752,43.32a.711.711,0,0,1-.648-1,13.074,13.074,0,0,1,15.3-6.973.712.712,0,0,1-.378,1.372A11.63,11.63,0,0,0,49.4,42.9.712.712,0,0,1,48.752,43.32Z" transform="translate(-48.041 -34.84)" fill="#003b20"/>
  </g>
  <g id="Group_119" data-name="Group 119" transform="translate(23.459 9.575)">
    <path id="Path_6352" data-name="Path 6352" d="M89.644,64.463a.711.711,0,0,1-.712-.712c0-2.634-1.832-4.3-5.766-5.259-1.02-.248-4.5-1.253-6.406-3.8a6.084,6.084,0,0,1-1.042-2.143A.712.712,0,0,1,77.1,52.2a4.646,4.646,0,0,0,.8,1.64c1.625,2.168,4.7,3.052,5.6,3.271,4.547,1.1,6.853,3.338,6.853,6.642A.711.711,0,0,1,89.644,64.463Z" transform="translate(-75.697 -51.662)" fill="#003b20"/>
  </g>
  <g id="Group_120" data-name="Group 120" transform="translate(12.922 23.056)">
    <ellipse id="Ellipse_28" data-name="Ellipse 28" cx="2.086" cy="2.086" rx="2.086" ry="2.086" fill="#003b20"/>
  </g>
  <g id="Group_121" data-name="Group 121" transform="translate(25.093 23.056)">
    <ellipse id="Ellipse_29" data-name="Ellipse 29" cx="2.086" cy="2.086" rx="2.086" ry="2.086" fill="#003b20"/>
  </g>
  <g id="Group_122" data-name="Group 122" transform="translate(17.252 30.219)">
    <path id="Path_6353" data-name="Path 6353" d="M68.9,90.908a5.1,5.1,0,0,1-3.945-1.745.712.712,0,0,1,1.1-.9,3.908,3.908,0,0,0,5.732-.057.711.711,0,1,1,1.127.868A5.047,5.047,0,0,1,68.9,90.908Z" transform="translate(-64.794 -87.928)" fill="#003b20"/>
  </g>
  <g id="Group_123" data-name="Group 123" transform="translate(1.019 4.663)">
    <path id="Path_6354" data-name="Path 6354" d="M38.431,60.746a.712.712,0,0,1-.638-.4A13.134,13.134,0,0,1,38.171,47.4c1.739-2.742,4.406-4.42,6.938-4.365a.712.712,0,0,1-.014,1.423H45c-2.022,0-4.171,1.413-5.624,3.706a11.724,11.724,0,0,0-.305,11.557.712.712,0,0,1-.638,1.027Z" transform="translate(-36.274 -43.033)" fill="#003b20"/>
  </g>
  <g id="Group_124" data-name="Group 124" transform="translate(29.413 2.71)">
    <path id="Path_6355" data-name="Path 6355" d="M96.538,59.267a.71.71,0,0,1-.675-.936c2.933-8.814-.957-13.221-4.737-15.365a19.984,19.984,0,0,0-4.464-1.973.712.712,0,0,1,.417-1.361,21.029,21.029,0,0,1,4.784,2.117c8.061,4.573,6.815,12.635,5.352,17.032A.712.712,0,0,1,96.538,59.267Z" transform="translate(-86.158 -39.601)" fill="#003b20"/>
  </g>
</svg>
