<?xml version="1.0" encoding="utf-8"?>
<svg id="Truck" xmlns="http://www.w3.org/2000/svg" width="56.717" height="32.649" viewBox="0 0 56.717 32.649">
  <g id="Group_136" data-name="Group 136" transform="translate(0 0)">
    <g id="Group_126" data-name="Group 126">
      <path id="Path_6356" data-name="Path 6356" d="M51.049,67.345H33.212a.635.635,0,1,1,0-1.271H49.778V41.427a.9.9,0,0,0-.9-.9h-30.5a.9.9,0,0,0-.9.9V65.172a.9.9,0,0,0,.9.9h5.889a.635.635,0,1,1,0,1.271H18.374A2.175,2.175,0,0,1,16.2,65.172V41.427a2.175,2.175,0,0,1,2.172-2.172h30.5a2.175,2.175,0,0,1,2.172,2.172Z" transform="translate(-16.202 -39.255)" fill="#003b20"/>
    </g>
    <g id="Group_127" data-name="Group 127" transform="translate(7.548 22.259)">
      <path id="Path_6357" data-name="Path 6357" d="M36.248,83.052a5.195,5.195,0,1,0,5.195,5.2A5.2,5.2,0,0,0,36.248,83.052Zm0,7.607a2.412,2.412,0,1,1,2.412-2.412A2.412,2.412,0,0,1,36.248,90.659Z" transform="translate(-31.053 -83.052)" fill="#003b20"/>
    </g>
    <g id="Group_128" data-name="Group 128" transform="translate(5.201 19.4)">
      <path id="Path_6358" data-name="Path 6358" d="M40.883,83.4a.635.635,0,0,1-.591-.4,6.787,6.787,0,0,0-12.63,0,.635.635,0,1,1-1.182-.466,8.058,8.058,0,0,1,14.994,0,.635.635,0,0,1-.591.868Z" transform="translate(-26.436 -77.426)" fill="#003b20"/>
    </g>
    <g id="Group_129" data-name="Group 129" transform="translate(37.46 19.4)">
      <path id="Path_6359" data-name="Path 6359" d="M104.355,83.4a.635.635,0,0,1-.591-.4,6.787,6.787,0,0,0-12.629,0,.635.635,0,0,1-1.182-.466,8.057,8.057,0,0,1,14.994,0,.635.635,0,0,1-.591.868Z" transform="translate(-89.909 -77.426)" fill="#003b20"/>
    </g>
    <g id="Group_130" data-name="Group 130" transform="translate(29.066 26.819)">
      <path id="Path_6360" data-name="Path 6360" d="M84.691,93.295H74.026a.635.635,0,0,1,0-1.271H84.691a.635.635,0,1,1,0,1.271Z" transform="translate(-73.391 -92.024)" fill="#003b20"/>
    </g>
    <g id="Group_131" data-name="Group 131" transform="translate(33.576 5.903)">
      <path id="Path_6361" data-name="Path 6361" d="M103.41,73.056h-5.2a.635.635,0,1,1,0-1.271h5.2a.728.728,0,0,0,.727-.727V61.5a1.25,1.25,0,0,0-1.248-1.248H97.355a2.279,2.279,0,0,1-2.1-1.389l-2.46-5.785a1.536,1.536,0,0,0-1.416-.937H82.9a.635.635,0,1,1,0-1.271h8.477a2.8,2.8,0,0,1,2.585,1.71l2.46,5.785a1.01,1.01,0,0,0,.931.616h5.534a2.521,2.521,0,0,1,2.518,2.518v9.56A2,2,0,0,1,103.41,73.056Z" transform="translate(-82.266 -50.87)" fill="#003b20"/>
    </g>
    <g id="Group_132" data-name="Group 132" transform="translate(36.196 8.464)">
      <path id="Path_6362" data-name="Path 6362" d="M94.724,62.73H88.548A1.13,1.13,0,0,1,87.42,61.6V57.037a1.13,1.13,0,0,1,1.128-1.128h4.5a1.553,1.553,0,0,1,1.432.947l1.616,3.8a1.49,1.49,0,0,1-1.371,2.074Zm-6.033-1.271h6.033a.22.22,0,0,0,.2-.306l-1.615-3.8a.285.285,0,0,0-.263-.174H88.691Z" transform="translate(-87.42 -55.909)" fill="#003b20"/>
    </g>
    <g id="Group_133" data-name="Group 133" transform="translate(39.807 22.259)">
      <path id="Path_6363" data-name="Path 6363" d="M99.72,83.052a5.195,5.195,0,1,0,5.2,5.2A5.2,5.2,0,0,0,99.72,83.052Zm0,7.607a2.412,2.412,0,1,1,2.412-2.412A2.412,2.412,0,0,1,99.72,90.659Z" transform="translate(-94.525 -83.052)" fill="#003b20"/>
    </g>
    <g id="Group_134" data-name="Group 134" transform="translate(2.974 2.792)">
      <path id="Path_6364" data-name="Path 6364" d="M50.318,46.019H22.689a.635.635,0,1,1,0-1.271H50.318a.635.635,0,1,1,0,1.271Z" transform="translate(-22.054 -44.748)" fill="#003b20"/>
    </g>
    <g id="Group_135" data-name="Group 135" transform="translate(51.087 16.361)">
      <path id="Path_6365" data-name="Path 6365" d="M119.044,72.718h-1.689a.635.635,0,1,1,0-1.271h1.689a.635.635,0,1,1,0,1.271Z" transform="translate(-116.72 -71.447)" fill="#003b20"/>
    </g>
  </g>
  <g id="Group_137" data-name="Group 137" transform="translate(10.675 5.92)">
    <path id="Path_6366" data-name="Path 6366" d="M49.714,59.77l0-3.43A5.436,5.436,0,0,0,44.282,50.9h0a5.42,5.42,0,0,0-4.019,1.776,2.072,2.072,0,0,0-1.516-.514A1.572,1.572,0,0,0,37.205,53.5c1.64.253,1.64,2.337,1.64,3.924v4.9h4.269v-5.9a2.156,2.156,0,0,1,4.313,0v4.331a1.953,1.953,0,0,0,1.992,1.923,1.321,1.321,0,0,0,1.3-1.119C49.643,61.556,49.695,60.885,49.714,59.77Z" transform="translate(-37.205 -50.903)" fill="#003b20"/>
  </g>
</svg>
